<svg xmlns="http://www.w3.org/2000/svg" width="55" height="35.03" viewBox="0 0 55 35.03">
  <defs>
    <style>
      .cls-1 {
        fill: #fff;
        fill-rule: evenodd;
      }
    </style>
  </defs>
  <path id="behance" class="cls-1" d="M482.5,3067.67h16.063c6.5,0,10.9,2.31,10.9,8.67a7.475,7.475,0,0,1-4.639,7.12c4.162,1.2,6.264,4.4,6.264,8.65,0,6.93-5.882,9.9-12.047,9.9H482.5v-34.34Zm6.862,13.75h7.6c2.628,0,4.589-1.19,4.589-4.06,0-3.25-2.487-3.92-5.162-3.92h-7.025v7.98Zm0,14.48h8.028c2.963,0,5.542-.95,5.542-4.49,0-3.49-2.2-4.88-5.4-4.88h-8.17v9.37Zm30.292-4.23c0.19,4.31,2.292,5.89,6.066,5.89,2.727,0,4.928-.87,5.358-2.4h5.435c-1.909,5.83-5.435,7.51-11.029,7.51-7.791,0-12.618-5.35-12.618-12.99,0-7.41,5.116-13.05,12.618-13.05,8.41,0,12.473,7.44,12,15.04H519.655Zm11.041-5.05c-0.622-3.44-2.107-4.88-5.4-4.88-4.3,0-5.543,2.97-5.637,4.88H530.7Zm1.592-12.08H518.6v-3.47h13.693v3.47Z" transform="translate(-482.5 -3067.66)"/>
</svg>
