<svg xmlns="http://www.w3.org/2000/svg" width="43.18" height="43.18" viewBox="0 0 43.18 43.18">
  <defs>
    <style>
      .cls-1 {
        fill: #fff;
        fill-rule: evenodd;
      }
    </style>
  </defs>
  <path id="pinterest" class="cls-1" d="M1109.53,3061.9a21.6,21.6,0,0,0-8.55,41.44,19.079,19.079,0,0,1,.38-4.93c0.42-1.75,2.79-11.81,2.79-11.81a8.387,8.387,0,0,1-.69-3.43c0-3.21,1.86-5.61,4.18-5.61,1.97,0,2.92,1.48,2.92,3.26,0,1.98-1.26,4.94-1.91,7.69a3.354,3.354,0,0,0,3.42,4.17c4.11,0,6.87-5.27,6.87-11.53,0-4.74-3.2-8.3-9.02-8.3a10.264,10.264,0,0,0-10.67,10.38,6.26,6.26,0,0,0,1.43,4.25,1.051,1.051,0,0,1,.31,1.21c-0.11.4-.34,1.36-0.44,1.74a0.749,0.749,0,0,1-1.09.54c-3.02-1.23-4.44-4.55-4.44-8.28,0-6.16,5.2-13.54,15.5-13.54,8.28,0,13.72,5.99,13.72,12.42,0,8.5-4.73,14.85-11.69,14.85a6.2,6.2,0,0,1-5.3-2.7s-1.26,4.99-1.52,5.96a18.476,18.476,0,0,1-2.15,4.59A21.6,21.6,0,1,0,1109.53,3061.9Z" transform="translate(-1087.94 -3061.91)"/>
</svg>
